<svg width="311" height="60" viewBox="0 0 311 60" fill="none" xmlns="http://www.w3.org/2000/svg">
<line opacity="0.8" x1="117.5" y1="4" x2="117.5" y2="60" stroke="white"/>
<path d="M186.521 39.8286C187.083 38.4571 187.589 37.2 188.038 36.0571C188.038 36 188.094 35.9429 188.094 35.9429C187.589 35.6571 186.802 35.4286 185.679 35.2571C185.061 35.1429 184.387 35.0857 183.656 35.0857C182.477 35.0857 181.41 35.2 180.455 35.4286C179.443 35.6571 178.601 35.8857 177.871 36.1714C177.14 36.4571 176.523 36.6857 176.073 36.9714C175.624 37.2 175.343 37.3714 175.231 37.4857V55.5429H180.511V40.3429C180.735 40.2286 181.129 40.0571 181.747 39.8286C182.308 39.6 183.151 39.4857 184.218 39.4857C184.555 39.4857 184.948 39.4857 185.342 39.5429C185.735 39.6 186.072 39.6571 186.465 39.7714C186.465 39.7714 186.465 39.8286 186.521 39.8286ZM158.323 45.3714C157.705 43.6571 157.031 42.0571 156.413 40.5143C155.795 38.9714 155.177 37.4857 154.671 36.1714C154.166 34.8571 153.66 33.6571 153.211 32.6857C152.762 31.7143 152.425 30.9143 152.2 30.4C151.638 29.1429 151.413 28.5714 151.413 28.5714H144.617C144.617 28.5714 144.392 29.1429 143.83 30.4C143.549 30.9714 143.212 31.7143 142.819 32.6857C142.37 33.6571 141.92 34.8571 141.359 36.1714C140.853 37.4857 140.235 38.9714 139.617 40.5143C138.999 42.0571 138.325 43.7143 137.707 45.3714C137.089 47.0857 136.415 48.7429 135.798 50.4571C135.18 52.1714 134.562 53.8286 134 55.4286H139.617L141.752 49.4857H154.222L156.413 55.4286H162.03C161.468 53.8286 160.85 52.1714 160.233 50.4571C159.558 48.7429 158.941 47.0286 158.323 45.3714ZM143.605 44.4C144.055 43.1429 144.504 41.8857 145.01 40.6286C145.459 39.3714 145.909 38.2286 146.302 37.1429C146.695 36.0571 147.032 35.1429 147.369 34.4C147.65 33.6571 147.875 33.1429 148.043 32.8571C148.155 33.1429 148.38 33.6571 148.717 34.4C148.998 35.1429 149.391 36.0571 149.784 37.1429C150.178 38.2286 150.627 39.3714 151.076 40.6286C151.526 41.8857 152.031 43.1429 152.481 44.4H143.605ZM164.951 55.4286H170.231V35.1429L164.951 36.6857V55.4286ZM167.535 28C166.749 28 166.018 28.2857 165.457 28.8571C164.895 29.4286 164.558 30.1143 164.558 30.9143C164.558 31.7143 164.839 32.4571 165.457 33.0286C166.018 33.6 166.749 33.8857 167.535 33.8857C168.378 33.8857 169.052 33.6 169.669 33.0286C170.231 32.4571 170.568 31.7714 170.568 30.9143C170.568 30.1143 170.287 29.3714 169.669 28.8571C169.108 28.2857 168.378 28 167.535 28ZM209.945 45.3714C209.327 43.6571 208.653 42.0571 208.035 40.5143C207.417 38.9714 206.799 37.4857 206.294 36.1714C205.788 34.8571 205.283 33.6571 204.833 32.6857C204.384 31.7143 204.047 30.9143 203.822 30.4C203.261 29.1429 203.036 28.5714 203.036 28.5714H196.239C196.239 28.5714 196.014 29.1429 195.453 30.4C195.172 30.9714 194.835 31.7143 194.442 32.6857C193.992 33.6571 193.543 34.8571 192.981 36.1714C192.476 37.4857 191.858 38.9714 191.24 40.5143C190.622 42.0571 189.948 43.7143 189.33 45.3714C188.712 47.0857 188.038 48.7429 187.42 50.4571C186.802 52.1714 186.184 53.8286 185.622 55.4286H191.24L193.374 49.4857H205.845L208.035 55.4286H213.653C213.091 53.8286 212.473 52.1714 211.855 50.4571C211.237 48.7429 210.619 47.0286 209.945 45.3714ZM195.284 44.4C195.734 43.1429 196.183 41.8857 196.688 40.6286C197.138 39.3714 197.587 38.2286 197.98 37.1429C198.374 36.0571 198.711 35.1429 199.048 34.4C199.329 33.6571 199.553 33.1429 199.722 32.8571C199.834 33.1429 200.059 33.6571 200.396 34.4C200.677 35.1429 201.07 36.0571 201.463 37.1429C201.856 38.2286 202.306 39.3714 202.755 40.6286C203.204 41.8857 203.71 43.1429 204.159 44.4H195.284ZM277.296 55.4286H282.576V35.1429L277.296 36.6857V55.4286ZM279.936 28C279.15 28 278.419 28.2857 277.858 28.8571C277.296 29.4286 276.959 30.1143 276.959 30.9143C276.959 31.7143 277.24 32.4571 277.858 33.0286C278.419 33.6 279.15 33.8857 279.936 33.8857C280.779 33.8857 281.453 33.6 282.071 33.0286C282.632 32.4571 282.969 31.7714 282.969 30.9143C282.969 30.1143 282.688 29.3714 282.071 28.8571C281.453 28.2857 280.779 28 279.936 28ZM305.214 36.6286C304.764 36.4 304.202 36.1714 303.472 36C302.742 35.7714 301.843 35.6 300.776 35.4286C299.709 35.2571 298.529 35.1429 297.125 35.1429C295.44 35.1429 293.923 35.4286 292.575 35.9429C291.227 36.4571 290.103 37.2 289.148 38.1714C288.193 39.1429 287.463 40.2857 286.958 41.6C286.452 42.9714 286.227 44.6286 286.227 46.2286C286.227 47.8286 286.452 49.2 286.958 50.4571C287.463 51.6571 288.081 52.6857 288.867 53.5429C289.654 54.3429 290.609 54.9714 291.732 55.3714C292.799 55.7714 293.979 56 295.159 56C296.001 56 296.788 55.8857 297.462 55.6571C298.136 55.4286 298.698 55.2 299.147 54.9143C299.596 54.6286 299.99 54.3429 300.27 54.1143C300.551 53.8286 300.72 53.6571 300.72 53.6V55.4857H306V37.0857C305.944 37.0286 305.663 36.8571 305.214 36.6286ZM300.776 46.5143C300.776 48 300.383 49.2 299.653 50.1714C298.922 51.1429 297.799 51.6571 296.338 51.6571C294.878 51.6571 293.754 51.0857 292.912 50C292.069 48.9143 291.676 47.4857 291.676 45.6571C291.676 44.7429 291.788 43.8286 292.013 43.0857C292.238 42.3429 292.631 41.6571 293.137 41.0857C293.642 40.5143 294.26 40.0571 295.046 39.7714C295.833 39.4857 296.732 39.3143 297.799 39.3143C298.585 39.3143 299.259 39.3714 299.765 39.4286C300.27 39.4857 300.607 39.6 300.776 39.6571V46.5143ZM229.1 35.8857C228.594 35.6 227.808 35.3714 226.685 35.2C226.067 35.0857 225.393 35.0286 224.662 35.0286C223.483 35.0286 222.415 35.1429 221.46 35.3714C220.449 35.6 219.607 35.8286 218.877 36.1143C218.146 36.4 217.528 36.6286 217.079 36.9143C216.63 37.1429 216.349 37.3143 216.236 37.4286V55.4857H221.517V40.3429C221.741 40.2286 222.135 40.0571 222.752 39.8286C223.314 39.6 224.157 39.4857 225.224 39.4857C225.561 39.4857 225.954 39.4857 226.347 39.5429C226.741 39.6 227.078 39.6571 227.471 39.7714C227.527 39.7714 227.527 39.7714 227.583 39.7714C228.145 38.4 228.651 37.1429 229.1 36C229.044 36 229.044 35.9429 229.1 35.8857ZM246.345 36C245.615 35.7714 244.716 35.6 243.649 35.4286C242.581 35.2571 241.402 35.1429 239.997 35.1429C238.312 35.1429 236.796 35.4286 235.447 35.9429C234.099 36.4571 232.976 37.2 232.021 38.1714C231.066 39.1429 230.336 40.2857 229.83 41.6C229.325 42.9714 229.1 44.6286 229.1 46.2286C229.1 47.8286 229.325 49.2 229.83 50.4571C230.336 51.6571 230.954 52.6857 231.74 53.5429C232.526 54.3429 233.481 54.9714 234.605 55.3714C235.672 55.7714 236.852 56 238.031 56C238.874 56 239.66 55.8857 240.334 55.6571C241.008 55.4286 241.57 55.2 242.02 54.9143C242.469 54.6286 242.862 54.3429 243.143 54.1143C243.424 53.8286 243.592 53.6571 243.592 53.6V55.4857H248.873V37.0857C248.76 37.0286 248.479 36.8571 248.03 36.6286C247.693 36.4571 247.075 36.2286 246.345 36ZM243.649 46.5143C243.649 48 243.255 49.2 242.525 50.1714C241.795 51.1429 240.671 51.6571 239.211 51.6571C237.75 51.6571 236.627 51.0857 235.784 50C234.942 48.9143 234.549 47.4857 234.549 45.6571C234.549 44.7429 234.661 43.8286 234.886 43.0857C235.11 42.3429 235.504 41.6571 236.009 41.0857C236.515 40.5143 237.133 40.0571 237.919 39.7714C238.705 39.4857 239.604 39.3143 240.671 39.3143C241.458 39.3143 242.132 39.3714 242.637 39.4286C243.143 39.4857 243.48 39.6 243.649 39.6571V46.5143ZM270.78 37.6571C269.937 36.8571 269.039 36.2286 267.915 35.7714C266.848 35.3714 265.724 35.1429 264.489 35.1429C263.59 35.1429 262.803 35.2571 262.186 35.4857C261.511 35.7143 260.95 35.9429 260.5 36.2286C260.051 36.5143 259.658 36.8 259.433 37.0286C259.152 37.3143 259.04 37.4286 258.984 37.5429V28.4571L253.703 30V55.4286C253.872 55.4286 254.153 55.4857 254.602 55.5429C255.052 55.6 255.613 55.6571 256.231 55.7143C256.905 55.7714 257.636 55.8286 258.478 55.8857C259.321 55.9429 260.163 55.9429 261.118 55.9429C265.219 55.9429 268.308 54.9714 270.387 53.0286C272.465 51.0857 273.532 48.2857 273.532 44.8571C273.532 43.3143 273.308 41.8857 272.802 40.6857C272.24 39.4857 271.622 38.4571 270.78 37.6571ZM267.634 48.0571C267.41 48.8 267.016 49.4857 266.511 50.0571C266.005 50.6286 265.387 51.0857 264.601 51.3714C263.814 51.6571 262.916 51.8286 261.848 51.8286C261.062 51.8286 260.388 51.7714 259.882 51.7143C259.377 51.6571 259.04 51.5429 258.871 51.4857V44.6286C258.871 43.1429 259.265 41.9429 259.995 40.9714C260.725 40 261.848 39.4857 263.309 39.4857C264.769 39.4857 265.893 40.0571 266.735 41.1429C267.578 42.2286 267.971 43.6571 267.971 45.4857C268.027 46.3429 267.859 47.3143 267.634 48.0571Z" fill="white"/>
<path d="M80.4577 30.0786C82.7554 30.0324 84.5808 28.1226 84.5349 25.8128C84.4889 23.5031 82.589 21.6681 80.2913 21.7143C77.9936 21.7605 76.1682 23.6703 76.2142 25.9801C76.2601 28.2898 78.16 30.1248 80.4577 30.0786Z" fill="white"/>
<path d="M90.381 44.6384C88.8931 45.9761 87.1675 46.599 85.6284 46.3362C84.1149 46.0808 82.9121 45.2539 81.7258 43.6608C81.2743 43.0526 80.8576 42.3856 80.4463 41.7406L80.3037 41.5109L77.2365 36.6085C75.7047 34.1585 74.1716 31.7121 72.6374 29.2695C72.61 29.2272 72.5826 29.1739 72.5533 29.1188V29.1004C72.49 28.959 72.4062 28.8277 72.3047 28.7109L72.2736 28.6723C71.582 27.4793 70.4534 26.6059 69.1293 26.2388C67.8052 25.8717 66.3908 26.0401 65.1886 26.708C64.5901 27.0355 64.0625 27.4796 63.6366 28.0144C63.2106 28.5491 62.8948 29.1637 62.7077 29.8224C62.5205 30.4811 62.4657 31.1706 62.5464 31.8508C62.6272 32.5311 62.8418 33.1883 63.1779 33.7842L75.6973 53.8921C76.1568 54.7023 76.8211 55.376 77.6229 55.8451C78.4248 56.3142 79.3357 56.5619 80.2634 56.5632C81.1912 56.5645 82.1028 56.3193 82.9059 55.8525C83.7091 55.3857 84.3752 54.7138 84.837 53.9049L90.8545 44.2029L90.381 44.6384Z" fill="white"/>
<path d="M30.7378 53.2453C30.725 53.2122 30.714 53.1773 30.7012 53.1442C30.7159 53.1773 30.725 53.2067 30.7378 53.2453Z" fill="white"/>
<path d="M31.6993 54.8365C31.6755 54.809 31.6536 54.7814 31.6298 54.7557C31.6536 54.7814 31.6755 54.809 31.6993 54.8365Z" fill="white"/>
<path d="M30.9242 53.6789C30.9078 53.6458 30.8913 53.6146 30.8767 53.5815C30.8987 53.6146 30.9078 53.6458 30.9242 53.6789Z" fill="white"/>
<path d="M31.0303 53.8866C31.0138 53.8553 30.9974 53.8241 30.9791 53.7928C30.9974 53.8241 31.0138 53.8553 31.0303 53.8866Z" fill="white"/>
<path d="M31.5494 54.6601L31.4818 54.5756L31.5494 54.6601Z" fill="white"/>
<path d="M31.4068 54.4764L31.3428 54.3882L31.4068 54.4764Z" fill="white"/>
<path d="M31.1472 54.0905L31.0924 53.9968L31.1472 54.0905Z" fill="white"/>
<path d="M31.2734 54.2871L31.2131 54.1953L31.2734 54.2871Z" fill="white"/>
<path d="M30.8255 53.4658C30.8127 53.4327 30.7981 53.3996 30.7835 53.3647C30.7981 53.3996 30.8127 53.4327 30.8255 53.4658Z" fill="white"/>
<path d="M30.5934 52.7859C30.5842 52.7528 30.5751 52.7216 30.5678 52.6885C30.5751 52.7216 30.5842 52.7528 30.5934 52.7859Z" fill="white"/>
<path d="M19.5893 46.6596C19.7099 46.6707 19.8324 46.6762 19.9549 46.6817C19.8324 46.6762 19.7099 46.6707 19.5893 46.6596Z" fill="white"/>
<path d="M30.6281 52.9182L30.661 53.0192L30.6281 52.9182Z" fill="white"/>
<path d="M35.3624 56.3102C35.4867 56.3102 35.6129 56.3102 35.7371 56.2955C36.6051 56.2219 37.4351 55.9051 38.133 55.3812C38.8309 54.8573 39.3687 54.1473 39.6855 53.3316C37.8259 51.8157 36.2972 49.9307 35.1947 47.7944C34.0923 45.658 33.4397 43.3161 33.2778 40.9149C33.1159 38.5137 33.4481 36.1047 34.2536 33.8383C35.0592 31.5719 36.3209 29.4968 37.9599 27.7425C38.6298 27.0341 39.3601 26.386 40.1424 25.8058L38.5631 25.0928L36.3495 24.0822C35.6925 23.7423 34.9644 23.5646 34.2255 23.564C33.3571 23.5666 32.5063 23.81 31.7668 24.2674C31.0273 24.7249 30.4277 25.3787 30.034 26.1567L29.9883 26.2486L29.8969 26.4323L29.7269 26.3239L29.641 26.2688C27.2236 24.7333 24.4837 23.7846 21.6384 23.4978C21.0754 23.4399 20.5098 23.4111 19.9439 23.4115C16.1851 23.3901 12.5487 24.7537 9.72217 27.2445C6.48809 30.0858 4.46462 34.0684 4.0706 38.3679C3.67658 42.6674 4.94219 46.9545 7.60544 50.342C8.9662 52.0455 10.6601 53.4502 12.5823 54.4695C14.5046 55.4888 16.6144 56.1009 18.7814 56.268C19.1725 56.301 19.5783 56.3176 19.9896 56.3176C23.3 56.3176 26.9028 55.2041 28.0745 53.8278C28.398 49.8532 27.8917 45.8677 27.2245 43.5157C25.031 46.0533 22.5414 46.678 21.2308 46.8232C20.9061 46.8597 20.5796 46.8781 20.2528 46.8783C20.0225 46.8783 19.794 46.8783 19.5747 46.8507C18.6774 46.7839 17.8031 46.5336 17.0054 46.1153C16.2077 45.697 15.5033 45.1194 14.9354 44.4179C13.7863 42.9484 13.2484 41.0885 13.4347 39.2288C13.7217 35.8165 16.4197 33.018 19.7118 32.7203C19.9604 32.6964 20.2108 32.6854 20.4539 32.6854C22.7644 32.6854 24.7842 33.6868 26.4568 35.6603C28.1293 37.6338 29.0616 40.1273 29.5496 41.8729C30.3448 44.7119 30.4636 47.6703 30.5714 50.5313V50.5699C30.5897 51.0366 30.608 51.5051 30.6299 51.9719C30.7468 53.1547 31.2949 54.2523 32.1686 55.0533C33.0423 55.8543 34.18 56.302 35.3624 56.3102Z" fill="white"/>
<path d="M30.4764 52.2144C30.4764 52.242 30.4855 52.2677 30.4892 52.2953C30.4855 52.2677 30.4801 52.242 30.4764 52.2144Z" fill="white"/>
<path d="M30.5166 52.4533C30.5166 52.4845 30.5294 52.5158 30.5367 52.5489C30.5331 52.5158 30.5221 52.4845 30.5166 52.4533Z" fill="white"/>
<path d="M31.7852 54.9266C31.8081 54.9536 31.8326 54.9794 31.8583 55.0037C31.8326 54.9794 31.8081 54.9536 31.7852 54.9266Z" fill="white"/>
<path d="M20.6148 46.6762C20.6641 46.6762 20.7116 46.6762 20.7592 46.6762C20.7116 46.6743 20.6623 46.6743 20.6148 46.6762Z" fill="white"/>
<path d="M34.3534 56.3856L34.2474 56.3617L34.3534 56.3856Z" fill="white"/>
<path d="M33.6734 56.1871L33.5784 56.1504L33.6734 56.1871Z" fill="white"/>
<path d="M34.5856 56.4297L34.4777 56.4113L34.5856 56.4297Z" fill="white"/>
<path d="M33.8983 56.2643L33.7959 56.2312L33.8983 56.2643Z" fill="white"/>
<path d="M34.1231 56.3304L34.0189 56.3029L34.1231 56.3304Z" fill="white"/>
<path d="M35.7518 56.4774C35.6348 56.4866 35.5196 56.4903 35.4045 56.4921C35.5196 56.4903 35.6348 56.4866 35.7518 56.4774Z" fill="white"/>
<path d="M34.8232 56.4627L34.7135 56.448L34.8232 56.4627Z" fill="white"/>
<path d="M31.9479 55.092L32.0228 55.1655L31.9479 55.092Z" fill="white"/>
<path d="M32.1965 55.3198L32.1179 55.2518L32.1965 55.3198Z" fill="white"/>
<path d="M32.3756 55.465L32.2988 55.4025L32.3756 55.465Z" fill="white"/>
<path d="M32.5621 55.5954L32.4871 55.5422L32.5621 55.5954Z" fill="white"/>
<path d="M32.754 55.7296C32.7339 55.7186 32.7156 55.7039 32.6955 55.691C32.7156 55.7039 32.7266 55.7186 32.754 55.7296Z" fill="white"/>
<path d="M33.2347 55.9979L33.1543 55.9593L33.2347 55.9979Z" fill="white"/>
<path d="M33.4577 56.0989L33.3682 56.0603L33.4577 56.0989Z" fill="white"/>
<path d="M32.9989 55.8766L32.9514 55.849L32.9989 55.8766Z" fill="white"/>
<path d="M97.095 33.6078C97.4221 33.0442 97.6341 32.4206 97.7187 31.7737C97.8032 31.1267 97.7587 30.4693 97.5876 29.8398C97.4165 29.2104 97.1223 28.6215 96.7222 28.1076C96.3221 27.5938 95.8241 27.1653 95.2574 26.8471C94.6906 26.529 94.0665 26.3276 93.4214 26.2548C92.7764 26.1819 92.1233 26.239 91.5005 26.4228C90.8776 26.6066 90.2975 26.9134 89.7939 27.3252C89.2903 27.7369 88.8735 28.2455 88.5677 28.8211C88.522 28.8983 84.3361 35.7503 80.9215 41.2941L80.9892 41.4007C81.384 42.0346 81.7935 42.6869 82.2285 43.2749C83.3088 44.7266 84.3873 45.48 85.7253 45.7023C85.9282 45.737 86.1337 45.7542 86.3395 45.7537C87.5276 45.7537 88.8109 45.1878 89.9551 44.1588L91.3261 42.9258L97.095 33.6078Z" fill="white"/>
<path d="M70.6212 9.02929C70.6302 7.71708 70.1252 6.454 69.2154 5.51296C68.3056 4.57192 67.064 4.02847 65.7589 4.00003H65.6474C64.3674 3.99552 63.1371 4.49864 62.2237 5.40021C61.7708 5.84475 61.4097 6.37489 61.1613 6.96017C60.9128 7.54545 60.7819 8.17432 60.776 8.81063C60.787 9.12668 60.7961 9.45376 60.8053 9.779C60.8236 10.4166 60.8437 11.0781 60.8711 11.7249C60.8711 11.7249 61.1398 19.9937 61.1416 20.0102L61.1581 20.5505C61.286 24.3854 61.4432 29.161 60.7596 33.617C59.9535 38.8741 58.1621 42.6024 55.2758 45.0096C54.1192 46.0076 52.6853 46.6241 51.1685 46.7754C50.9674 46.7919 50.7608 46.8011 50.5598 46.8011C48.7077 46.8038 46.9279 46.0784 45.6006 44.7799C44.9325 44.1397 44.4005 43.37 44.0366 42.5172C43.6728 41.6645 43.4848 40.7464 43.4839 39.8186C43.4839 37.1156 44.895 34.7213 47.1653 33.5711C48.1458 33.079 49.2282 32.8272 50.324 32.8361C51.671 32.8539 52.9963 33.1795 54.1997 33.7882C55.4031 34.3968 56.453 35.2727 57.2701 36.3494C57.9226 33.1374 58.184 30.1515 58.184 25.8756C57.685 25.2839 56.6102 24.6555 55.2886 24.1869C53.622 23.6069 51.8701 23.3137 50.1064 23.3196C47.9367 23.3026 45.7865 23.7331 43.7887 24.5846C41.791 25.436 39.9882 26.6903 38.4918 28.2698C35.56 31.4142 33.9427 35.5711 33.9747 39.8807C34.0067 44.1902 35.6854 48.3225 38.6637 51.4225C41.7291 54.5922 45.9022 56.3378 50.4135 56.3378C52.3079 56.3379 54.1892 56.0231 55.9814 55.4062C61.4048 53.5448 65.4299 49.2615 67.9451 42.6741L67.7441 42.3525L62.6259 34.137V34.126L62.6149 34.1076C62.2386 33.4425 61.998 32.7085 61.9073 31.9488C61.8166 31.189 61.8776 30.4187 62.0866 29.6829C62.2956 28.9392 62.6499 28.2448 63.1288 27.6403C63.6078 27.0358 64.2017 26.5333 64.8761 26.1622C65.7903 25.655 66.8221 25.4006 67.8661 25.4252C68.9101 25.4497 69.9289 25.7522 70.8186 26.3019C70.8954 23.224 70.8186 20.0837 70.7345 17.0445C70.6596 14.3967 70.5883 11.679 70.6212 9.02929Z" fill="white"/>
<path d="M60.6609 8.04071C60.7023 7.79123 60.7635 7.54546 60.8437 7.30571C60.7635 7.54546 60.7023 7.79123 60.6609 8.04071Z" fill="white"/>
<path d="M60.5932 8.80512C60.5971 8.549 60.6197 8.29351 60.6609 8.04071C60.6197 8.29351 60.5971 8.549 60.5932 8.80512C60.6261 9.78083 60.6462 10.7566 60.6883 11.7323C60.6462 10.7602 60.6261 9.78083 60.5932 8.80512Z" fill="white"/>
<path d="M60.8363 7.31307C60.8857 7.15688 60.9442 7.00253 61.0082 6.85369C60.9442 7.00253 60.8857 7.15688 60.8363 7.31307Z" fill="white"/>
</svg>
