<svg width="54" height="30" viewBox="0 0 54 30" fill="none" xmlns="http://www.w3.org/2000/svg">
<path d="M18.7823 11.4058C18.45 11.2367 18.0876 11.135 17.7158 11.1063C17.3441 11.0777 16.9704 11.1228 16.6161 11.239C16.2618 11.3552 15.934 11.5403 15.6515 11.7835C15.3689 12.0268 15.1372 12.3235 14.9697 12.6566C13.5706 11.772 11.9847 11.2257 10.3378 11.0608C7.91969 10.8159 5.45471 11.4611 3.42435 13.2236C1.55147 14.8621 0.379846 17.1577 0.151716 19.6357C-0.0764141 22.1137 0.656394 24.5846 2.19863 26.5376C2.98797 27.5203 3.97043 28.3307 5.08531 28.9187C6.20019 29.5067 7.42381 29.8598 8.68055 29.9563C10.934 30.147 13.4365 29.3674 14.1442 28.4783C14.3453 26.0905 14.0076 23.5682 13.572 22.2455C12.2045 23.9601 10.6077 24.2258 10.073 24.2884C9.76918 24.3228 9.46271 24.3277 9.15792 24.303C7.05877 24.1247 5.61417 22.3393 5.7997 20.1485C5.95396 18.3297 7.39542 16.7652 9.23921 16.6047C12.2785 16.3306 13.9639 19.1218 14.6851 21.6837C15.2063 23.54 15.2062 25.4641 15.2959 27.3756C15.3633 28.1277 15.7244 28.823 16.3009 29.3108C16.8774 29.7985 17.6229 30.0394 18.3758 29.9813C18.7465 29.9501 19.1073 29.8458 19.4374 29.6744C19.7675 29.5029 20.0603 29.2677 20.2989 28.9824C20.5376 28.697 20.7173 28.3672 20.8276 28.012C20.938 27.6567 20.9768 27.2832 20.9419 26.9128C20.9419 26.9128 20.6886 20.9781 20.5156 17.0654C20.5156 17.0654 20.3645 13.3226 24.249 13.8896L18.7823 11.4058Z" fill="#97D700"/>
<path d="M38.4582 13.0276C38.5625 9.69234 38.3154 6.32265 38.354 3.01134C38.3599 2.23929 38.0616 1.49596 37.5237 0.942187C36.9857 0.388411 36.2513 0.0687288 35.4794 0.052313C35.0993 0.0420622 34.721 0.107425 34.3664 0.244605C34.0118 0.381785 33.688 0.588048 33.4137 0.851418C33.1395 1.11479 32.9203 1.43002 32.7689 1.77879C32.6176 2.12757 32.537 2.50295 32.5319 2.88314C32.5506 3.43659 32.5621 3.99004 32.5861 4.54244L32.7403 9.24103C32.8831 13.6269 33.1927 20.212 29.4352 23.341C28.7902 23.8907 27.9921 24.2294 27.1485 24.3113C24.9024 24.5062 22.8804 22.7343 22.8804 20.4622C22.8804 19.0228 23.6183 17.6689 24.9222 17.0112C26.9161 16.0044 29.503 16.9747 30.6881 18.7497C31.1269 16.6933 31.2603 14.8933 31.2603 12.5169C30.7068 11.8217 28.7963 11.0004 26.5502 11.0004C25.299 10.9913 24.0592 11.2391 22.9075 11.7283C21.7558 12.2176 20.7168 12.9379 19.8546 13.8448C18.1639 15.6476 17.231 18.0316 17.2493 20.5031C17.2675 22.9747 18.2354 25.3446 19.9526 27.1223C22.5375 29.7822 26.447 30.5994 29.9355 29.4091C36.5373 27.1515 38.2779 19.1302 38.4582 13.0276Z" fill="#005EB8"/>
<path d="M43.8607 14.949C45.1708 14.9228 46.2116 13.8394 46.1854 12.5293C46.1592 11.2191 45.0759 10.1783 43.7658 10.2045C42.4556 10.2307 41.4148 11.314 41.441 12.6242C41.4672 13.9343 42.5505 14.9752 43.8607 14.949Z" fill="#97D700"/>
<path d="M44.5367 22.6844C44.248 22.2988 43.9895 21.8777 43.7279 21.4629C43.1449 20.5352 42.5616 19.608 41.9779 18.681C41.1045 17.2913 40.2307 15.9041 39.3566 14.5192C39.2993 14.4285 39.2378 14.268 39.1544 14.1982C38.7708 13.5263 38.138 13.0326 37.393 12.8238C36.648 12.6151 35.8508 12.7082 35.174 13.083C34.8398 13.2658 34.5454 13.5132 34.3076 13.8107C34.0699 14.1083 33.8937 14.4501 33.7891 14.8164C33.6846 15.1826 33.6539 15.566 33.6987 15.9442C33.7436 16.3225 33.8631 16.688 34.0504 17.0196L41.19 28.4367C42.3219 30.4421 45.2069 30.3848 46.3086 28.4367L49.5532 23.2514C48.808 23.9185 47.8105 24.3979 46.7943 24.227C45.7781 24.0561 45.0985 23.4338 44.5367 22.6844Z" fill="#97D700"/>
<path d="M52.3227 13.0704C51.9917 12.8851 51.6274 12.7669 51.2506 12.7227C50.8738 12.6784 50.492 12.709 50.1271 12.8126C49.7621 12.9162 49.4212 13.0908 49.1239 13.3264C48.8266 13.562 48.5786 13.854 48.3944 14.1856C48.3944 14.1856 45.8283 18.3704 43.8198 21.6077C44.0502 21.9756 44.2816 22.3435 44.5369 22.6844C45.0977 23.4348 45.772 24.0497 46.7945 24.2228C47.817 24.3958 48.804 23.9163 49.5503 23.2503L53.4369 17.0071C53.8105 16.3372 53.9031 15.5463 53.6942 14.8083C53.4853 14.0702 52.992 13.4452 52.3227 13.0704Z" fill="#009639"/>
</svg>
